<svg width="8" height="28" viewBox="0 0 8 28" fill="none" xmlns="http://www.w3.org/2000/svg">
<path d="M4 20.5C5.25 20.5 6.375 21.1875 7 22.25C7.625 23.375 7.625 24.6875 7 25.75C6.375 26.875 5.25 27.5 4 27.5C2.6875 27.5 1.5625 26.875 0.9375 25.75C0.3125 24.6875 0.3125 23.375 0.9375 22.25C1.5625 21.1875 2.6875 20.5 4 20.5ZM4 10.5C5.25 10.5 6.375 11.1875 7 12.25C7.625 13.375 7.625 14.6875 7 15.75C6.375 16.875 5.25 17.5 4 17.5C2.6875 17.5 1.5625 16.875 0.9375 15.75C0.3125 14.6875 0.3125 13.375 0.9375 12.25C1.5625 11.1875 2.6875 10.5 4 10.5ZM7.5 4C7.5 5.3125 6.8125 6.4375 5.75 7.0625C4.625 7.6875 3.3125 7.6875 2.25 7.0625C1.125 6.4375 0.5 5.3125 0.5 4C0.5 2.75 1.125 1.625 2.25 1C3.3125 0.375 4.625 0.375 5.75 1C6.8125 1.625 7.5 2.75 7.5 4Z" fill="black"/>
</svg>
