<svg width="35" height="39" viewBox="0 0 35 39" fill="none" xmlns="http://www.w3.org/2000/svg">
<path d="M20.4688 1.39062C21.3281 2.01562 21.4844 3.1875 20.8594 4.04688L20.4688 4.51562C20.1562 4.98438 19.8438 5.53125 19.6875 6H27.5C31.6406 6 35 9.35938 35 13.5C35 14.9062 33.8281 16 32.5 16H2.5C1.09375 16 0 14.9062 0 13.5C0 9.35938 3.35938 6 7.5 6H15.7812C16.0938 4.67188 16.6406 3.42188 17.5 2.25L17.8125 1.78125C18.4375 0.921875 19.6094 0.765625 20.4688 1.39062ZM16.6406 38.2656C6.09375 34.2812 3.75 24.6719 3.75 18.5H17.5H31.25C31.25 24.6719 28.8281 34.2812 18.2812 38.2656C17.7344 38.4219 17.1875 38.4219 16.6406 38.2656Z" fill="black"/>
</svg>
