<svg width="40" height="36" viewBox="0 0 40 36" fill="none" xmlns="http://www.w3.org/2000/svg">
<path d="M1.32812 20.8125C0.3125 19.0938 0.3125 16.9844 1.32812 15.1875L8.20312 3.3125C9.21875 1.51562 11.0938 0.5 13.0469 0.5H26.875C28.9062 0.5 30.7031 1.51562 31.7188 3.3125L38.5938 15.1875C39.6094 16.9844 39.6094 19.0938 38.5938 20.8125L31.7188 32.7656C30.7031 34.5625 28.9062 35.5781 26.875 35.5781H13.0469C11.0938 35.5781 9.21875 34.5625 8.20312 32.7656L1.32812 20.8125ZM20 8C18.9062 8 18.125 8.85938 18.125 9.875V18.625C18.125 19.7188 18.9062 20.5 20 20.5C21.0156 20.5 21.875 19.7188 21.875 18.625V9.875C21.875 8.85938 21.0156 8 20 8ZM22.5 25.5C22.5 24.1719 21.3281 23 20 23C18.5938 23 17.5 24.1719 17.5 25.5C17.5 26.9062 18.5938 28 20 28C21.3281 28 22.5 26.9062 22.5 25.5Z" fill="black"/>
</svg>
