<svg width="27" height="25" viewBox="0 0 27 25" fill="none" xmlns="http://www.w3.org/2000/svg">
<path d="M11.3906 1.14062C11.9062 1.42188 12.1406 2.125 11.8594 2.6875L8.01562 10H18.9375L15.0938 2.6875C14.8125 2.125 15.0469 1.42188 15.5625 1.14062C16.125 0.859375 16.8281 1.09375 17.1094 1.60938L21.4688 10H25.5C26.2969 10 27 10.7031 27 11.5C27 12.3438 26.2969 13 25.5 13L23.0625 22.75C22.7344 24.0625 21.5156 25 20.1562 25H6.84375C5.4375 25 4.26562 24.0625 3.89062 22.75L1.5 13C0.65625 13 0 12.3438 0 11.5C0 10.7031 0.65625 10 1.5 10H5.48438L9.84375 1.60938C10.125 1.09375 10.8281 0.859375 11.3906 1.14062ZM6.75 14.875C7.35938 14.875 7.875 14.4062 7.875 13.75C7.875 13.1406 7.35938 12.625 6.75 12.625C6.09375 12.625 5.625 13.1406 5.625 13.75C5.625 14.4062 6.09375 14.875 6.75 14.875ZM21.375 13.75C21.375 13.1406 20.8594 12.625 20.25 12.625C19.5938 12.625 19.125 13.1406 19.125 13.75C19.125 14.4062 19.5938 14.875 20.25 14.875C20.8594 14.875 21.375 14.4062 21.375 13.75Z" fill="black"/>
</svg>
