<svg width="24" height="18" viewBox="0 0 24 18" fill="none" xmlns="http://www.w3.org/2000/svg">
<path d="M0 1.5C0 0.703125 0.65625 0 1.5 0H22.5C23.2969 0 24 0.703125 24 1.5V3.75C24 4.59375 23.2969 5.25 22.5 5.25H1.5C0.65625 5.25 0 4.59375 0 3.75V1.5ZM14.2031 14.9531C14.6719 15.2344 15.2812 15.2344 15.75 14.9531L19.0312 13.0312C19.3125 12.8438 19.6406 12.75 20.0156 12.75H20.25H22.5C23.2969 12.75 24 13.4531 24 14.25V16.5C24 17.3438 23.2969 18 22.5 18H1.5C0.65625 18 0 17.3438 0 16.5V14.25C0 13.4531 0.65625 12.75 1.5 12.75H9.75H9.9375C10.3125 12.75 10.6406 12.8438 10.9219 13.0312L14.2031 14.9531ZM1.5 11.25C0.65625 11.25 0 10.5938 0 9.75C0 8.95312 0.65625 8.25 1.5 8.25C1.82812 8.25 2.20312 8.10938 3.14062 7.64062C3.9375 7.3125 5.0625 6.75 6.375 6.75C7.78125 6.75 8.85938 7.26562 9.65625 7.59375L9.75 7.64062C10.5469 8.01562 11.1094 8.25 12 8.25C12.8438 8.25 13.4531 8.01562 14.25 7.64062L14.3438 7.59375C15.1406 7.26562 16.1719 6.75 17.625 6.75C18.9375 6.75 20.0625 7.3125 20.8125 7.64062C21.75 8.10938 22.1719 8.25 22.5 8.25C23.2969 8.25 24 8.95312 24 9.75C24 10.5938 23.2969 11.25 22.5 11.25C21.4219 11.25 20.3906 10.7812 19.7344 10.4531C19.6875 10.4531 19.5938 10.4062 19.5469 10.3594C18.75 9.98438 18.1875 9.75 17.625 9.75C16.875 9.75 16.3125 9.98438 15.4688 10.4062C14.625 10.7812 13.5469 11.25 12 11.25C10.4531 11.25 9.32812 10.7812 8.48438 10.4062C7.64062 9.98438 7.125 9.75 6.375 9.75C5.8125 9.75 5.25 9.98438 4.40625 10.3594C4.35938 10.4062 4.3125 10.4531 4.21875 10.4531C3.5625 10.7812 2.53125 11.25 1.5 11.25Z" fill="black"/>
</svg>
