<svg width="27" height="18" viewBox="0 0 27 18" fill="none" xmlns="http://www.w3.org/2000/svg">
<path d="M25.5 8.25H25.4531C26.2969 8.25 26.9531 8.95312 26.9531 9.75C26.9531 10.5938 26.3438 11.25 25.5469 11.25C24.7031 11.25 23.9062 10.9219 23.25 10.5938C22.9219 10.4531 22.6406 10.2656 22.4531 10.125C22.3594 10.0781 22.3125 10.0312 22.2656 9.98438C22.2188 9.98438 22.2188 9.9375 22.2188 9.9375H22.1719C21.8906 9.70312 21.5156 9.70312 21.2344 9.9375V9.98438C21.1875 9.98438 21.1875 9.98438 21.1875 9.98438C21.1406 10.0312 21.0469 10.0781 21 10.125C20.8125 10.2656 20.5312 10.4531 20.2031 10.5938C19.5938 10.9219 18.6562 11.25 17.5781 11.25C16.5469 11.25 15.6094 10.9219 14.9531 10.5938C14.625 10.4531 14.3906 10.2656 14.2031 10.125C14.1094 10.0781 14.0625 10.0312 14.0156 9.98438H13.9688V9.9375C13.6875 9.70312 13.2656 9.70312 12.9844 9.9375V9.98438H12.9375C12.8906 10.0312 12.8438 10.0781 12.75 10.125C12.5625 10.2656 12.3281 10.4531 12 10.5938C11.3438 10.9219 10.4062 11.25 9.375 11.25C8.29688 11.25 7.35938 10.9219 6.70312 10.5938C6.375 10.4531 6.14062 10.2656 5.95312 10.125C5.85938 10.0781 5.8125 10.0312 5.76562 9.98438C5.76562 9.98438 5.76562 9.98438 5.71875 9.98438V9.9375H4.73438C4.73438 9.9375 4.73438 9.98438 4.6875 9.98438C4.64062 10.0312 4.59375 10.0781 4.5 10.125C4.3125 10.2656 4.03125 10.4531 3.70312 10.5938C3.04688 10.9219 2.25 11.25 1.40625 11.25C0.609375 11.25 0 10.5938 0 9.75C0 8.95312 0.65625 8.25 1.5 8.25C1.82812 8.25 2.15625 8.0625 2.29688 7.6875C4.03125 3.23438 8.39062 0 13.5 0C18.6094 0 22.9688 3.23438 24.7031 7.6875C24.7969 8.0625 25.125 8.25 25.5 8.25ZM5.71875 9.9375H4.73438C5.0625 9.70312 5.4375 9.70312 5.71875 9.9375ZM3.79688 15.9844L2.67188 12.6094C3.32812 12.4219 3.9375 12.1875 4.40625 11.9531C4.73438 11.7656 5.01562 11.5781 5.20312 11.4375C5.4375 11.5781 5.71875 11.7656 6.04688 11.9531C6.84375 12.3281 7.96875 12.75 9.375 12.75C10.7344 12.75 11.8594 12.3281 12.6562 11.9531C12.9844 11.7656 13.2656 11.5781 13.5 11.4375C13.6875 11.5781 13.9688 11.7656 14.2969 11.9531C15.0938 12.3281 16.2188 12.75 17.625 12.75C18.9844 12.75 20.1094 12.3281 20.9062 11.9531C21.2812 11.7656 21.5156 11.5781 21.75 11.4375C21.9375 11.5781 22.2188 11.7656 22.5469 11.9531C23.0156 12.1875 23.625 12.4219 24.2812 12.6094L23.1562 15.9844C22.7344 17.2031 21.6094 18 20.2969 18H6.65625C5.34375 18 4.21875 17.2031 3.79688 15.9844ZM9.65625 4.125C9.84375 3.75 9.70312 3.28125 9.32812 3.09375C8.95312 2.90625 8.48438 3.04688 8.29688 3.42188L7.54688 4.92188C7.35938 5.29688 7.5 5.76562 7.875 5.95312C8.25 6.14062 8.71875 6 8.90625 5.625L9.65625 4.125ZM18.6562 3.42188C18.4688 3.04688 18 2.90625 17.625 3.09375C17.25 3.28125 17.1094 3.75 17.2969 4.125L18.0469 5.625C18.2344 6 18.7031 6.14062 19.0781 5.95312C19.4531 5.76562 19.5938 5.29688 19.4062 4.92188L18.6562 3.42188ZM14.25 3.75C14.25 3.375 13.875 3 13.5 3C13.0781 3 12.75 3.375 12.75 3.75V5.25C12.75 5.67188 13.0781 6 13.5 6C13.875 6 14.25 5.67188 14.25 5.25V3.75Z" fill="black"/>
</svg>
