<svg width="42" height="33" viewBox="0 0 42 33" fill="none" xmlns="http://www.w3.org/2000/svg">
<path d="M30.25 12C30.25 18.2578 23.6406 23.25 15.625 23.25C12.7422 23.25 10 22.6172 7.75 21.4922C6.20312 22.4062 4.09375 23.25 1.5625 23.25C1.28125 23.25 1.14062 23.1797 1 22.9688C0.929688 22.7578 1 22.4766 1.14062 22.3359C1.14062 22.3359 2.6875 20.6484 3.67188 18.4688C1.98438 16.6406 1 14.4609 1 12C1 5.8125 7.53906 0.75 15.625 0.75C23.6406 0.75 30.25 5.8125 30.25 12ZM38.8281 27.4688C39.7422 29.6484 41.2891 31.3359 41.2891 31.3359C41.5 31.4766 41.5 31.7578 41.4297 31.9688C41.3594 32.1797 41.1484 32.25 40.9375 32.25C38.3359 32.25 36.2266 31.4062 34.6797 30.4922C32.4297 31.6172 29.7578 32.25 26.875 32.25C20.7578 32.25 15.5547 29.4375 13.375 25.4297C14.0781 25.5 14.8516 25.5 15.625 25.5C24.9062 25.5 32.5 19.4531 32.5 12C32.5 11.5781 32.4297 11.0859 32.3594 10.5938C37.7031 12.2812 41.5 16.3594 41.5 21C41.5 23.4609 40.4453 25.6406 38.8281 27.4688Z" fill="black"/>
</svg>
