<svg width="24" height="24" viewBox="0 0 24 24" fill="none" xmlns="http://www.w3.org/2000/svg">
<path d="M22.125 9.23438H22.0781C23.2031 9.70312 23.9531 10.7812 23.9531 12C23.9531 13.2656 23.2031 14.3438 22.0781 14.8125C21.1406 18.375 18.3281 21.1875 14.7656 22.125C14.2969 23.25 13.2188 24 11.9531 24C10.7344 24 9.65625 23.25 9.1875 22.125C5.625 21.1875 2.8125 18.375 1.82812 14.8125C0.75 14.3438 0 13.2656 0 12C0 10.7812 0.75 9.70312 1.875 9.23438C2.8125 5.67188 5.625 2.85938 9.1875 1.875C9.65625 0.796875 10.7344 0 12 0C13.2188 0 14.2969 0.796875 14.7656 1.875C18.3281 2.85938 21.1406 5.67188 22.125 9.23438ZM19.125 9.65625C18.375 7.40625 16.5938 5.625 14.3438 4.875C13.7812 5.57812 12.9375 6 12 6C11.0156 6 10.1719 5.57812 9.65625 4.875C7.35938 5.625 5.57812 7.40625 4.875 9.65625C5.53125 10.2188 6 11.0625 6 12C6 12.9844 5.53125 13.8281 4.875 14.3438C5.57812 16.6406 7.35938 18.4219 9.65625 19.125C10.1719 18.4688 11.0156 18 12 18C12.9375 18 13.7812 18.4688 14.3438 19.125C16.5938 18.4219 18.375 16.6406 19.125 14.3438C18.4219 13.8281 18 12.9844 18 12C18 11.0625 18.4219 10.2188 19.125 9.65625Z" fill="black"/>
</svg>
