<svg width="102" height="96" viewBox="0 0 102 96" fill="none" xmlns="http://www.w3.org/2000/svg">
<path d="M83 47C83 63.971 68.825 78 51 78C33.175 78 19 63.971 19 47C19 30.029 33.175 16 51 16C68.825 16 83 30.029 83 47Z" fill="white" stroke="white" stroke-width="12"/>
<mask id="path-2-outside-1_280_812" maskUnits="userSpaceOnUse" x="-10" y="-12" width="121" height="120" fill="black">
<rect fill="white" x="-10" y="-12" width="121" height="120"/>
<path d="M51 96C33.75 96 18 87 9.375 72C0.75 57.1875 0.75 39 9.375 24C18 9.1875 33.75 0 51 0C68.0625 0 83.8125 9.1875 92.4375 24C101.062 39 101.062 57.1875 92.4375 72C83.8125 87 68.0625 96 51 96ZM35.8125 32.8125C33.9375 34.6875 33.9375 37.5 35.8125 39.1875L44.625 48L35.8125 56.8125C33.9375 58.6875 33.9375 61.5 35.8125 63.1875C37.5 65.0625 40.3125 65.0625 42 63.1875L50.8125 54.375L59.625 63.1875C61.5 65.0625 64.3125 65.0625 66 63.1875C67.875 61.5 67.875 58.6875 66 56.8125L57.1875 48L66 39.1875C67.875 37.5 67.875 34.6875 66 32.8125C64.3125 31.125 61.5 31.125 59.625 32.8125L50.8125 41.625L42 32.8125C40.3125 31.125 37.5 31.125 35.8125 32.8125Z"/>
</mask>
<path d="M51 96C33.75 96 18 87 9.375 72C0.75 57.1875 0.75 39 9.375 24C18 9.1875 33.75 0 51 0C68.0625 0 83.8125 9.1875 92.4375 24C101.062 39 101.062 57.1875 92.4375 72C83.8125 87 68.0625 96 51 96ZM35.8125 32.8125C33.9375 34.6875 33.9375 37.5 35.8125 39.1875L44.625 48L35.8125 56.8125C33.9375 58.6875 33.9375 61.5 35.8125 63.1875C37.5 65.0625 40.3125 65.0625 42 63.1875L50.8125 54.375L59.625 63.1875C61.5 65.0625 64.3125 65.0625 66 63.1875C67.875 61.5 67.875 58.6875 66 56.8125L57.1875 48L66 39.1875C67.875 37.5 67.875 34.6875 66 32.8125C64.3125 31.125 61.5 31.125 59.625 32.8125L50.8125 41.625L42 32.8125C40.3125 31.125 37.5 31.125 35.8125 32.8125Z" fill="#ECA731"/>
<path d="M9.375 72L19.7779 66.0183L19.7616 65.99L19.7451 65.9617L9.375 72ZM9.375 24L-0.995105 17.9617L-1.01157 17.99L-1.02788 18.0183L9.375 24ZM92.4375 24L102.84 18.0183L102.824 17.99L102.808 17.9617L92.4375 24ZM92.4375 72L82.0674 65.9617L82.0509 65.99L82.0346 66.0183L92.4375 72ZM35.8125 39.1875L44.2978 30.7022L44.0746 30.4791L43.8401 30.268L35.8125 39.1875ZM44.625 48L53.1103 56.4853L61.5956 48L53.1103 39.5147L44.625 48ZM35.8125 63.1875L44.732 55.1599L44.3095 54.6905L43.8401 54.268L35.8125 63.1875ZM42 63.1875L33.5147 54.7022L33.2916 54.9254L33.0805 55.1599L42 63.1875ZM50.8125 54.375L59.2978 45.8897L50.8125 37.4044L42.3272 45.8897L50.8125 54.375ZM66 63.1875L57.9724 54.268L57.503 54.6905L57.0805 55.1599L66 63.1875ZM57.1875 48L48.7022 39.5147L40.2169 48L48.7022 56.4853L57.1875 48ZM66 39.1875L57.9724 30.268L57.7379 30.4791L57.5147 30.7022L66 39.1875ZM59.625 32.8125L51.5974 23.893L51.3629 24.1041L51.1397 24.3272L59.625 32.8125ZM50.8125 41.625L42.3272 50.1103L50.8125 58.5956L59.2978 50.1103L50.8125 41.625ZM51 84C37.998 84 26.2389 77.2548 19.7779 66.0183L-1.02788 77.9817C9.76114 96.7452 29.502 108 51 108V84ZM19.7451 65.9617C13.3068 54.9047 13.2688 41.3017 19.7779 29.9817L-1.02788 18.0183C-11.7688 36.6983 -11.8068 59.4703 -0.995105 78.0383L19.7451 65.9617ZM19.7451 30.0383C26.2455 18.8746 38.0703 12 51 12V-12C29.4297 -12 9.7545 -0.499574 -0.995105 17.9617L19.7451 30.0383ZM51 12C63.7162 12 75.5537 18.8518 82.0674 30.0383L102.808 17.9617C92.0713 -0.476796 72.4088 -12 51 -12V12ZM82.0346 29.9817C88.5437 41.3017 88.5057 54.9047 82.0674 65.9617L102.808 78.0383C113.619 59.4703 113.581 36.6983 102.84 18.0183L82.0346 29.9817ZM82.0346 66.0183C75.5606 77.2775 63.7882 84 51 84V108C72.3368 108 92.0644 96.7225 102.84 77.9817L82.0346 66.0183ZM27.3272 24.3272C21.0282 30.6262 20.3511 41.4165 27.7849 48.107L43.8401 30.268C45.4677 31.7329 46.4062 33.8664 46.4062 36.0703C46.4062 38.2368 45.5154 40.0802 44.2978 41.2978L27.3272 24.3272ZM27.3272 47.6728L36.1397 56.4853L53.1103 39.5147L44.2978 30.7022L27.3272 47.6728ZM36.1397 39.5147L27.3272 48.3272L44.2978 65.2978L53.1103 56.4853L36.1397 39.5147ZM27.3272 48.3272C21.0282 54.6262 20.3511 65.4165 27.7849 72.107L43.8401 54.268C45.4677 55.7328 46.4062 57.8664 46.4062 60.0703C46.4062 62.2368 45.5154 64.0802 44.2978 65.2978L27.3272 48.3272ZM26.893 71.2151C33.3474 78.3866 44.4651 78.3866 50.9195 71.2151L33.0805 55.1599C36.1599 51.7384 41.6526 51.7384 44.732 55.1599L26.893 71.2151ZM50.4853 71.6728L59.2978 62.8603L42.3272 45.8897L33.5147 54.7022L50.4853 71.6728ZM42.3272 62.8603L51.1397 71.6728L68.1103 54.7022L59.2978 45.8897L42.3272 62.8603ZM51.1397 71.6728C57.4387 77.9718 68.229 78.6489 74.9195 71.2151L57.0805 55.1599C58.5453 53.5323 60.6789 52.5938 62.8828 52.5938C65.0493 52.5938 66.8927 53.4846 68.1103 54.7022L51.1397 71.6728ZM74.0276 72.107C81.4614 65.4165 80.7843 54.6262 74.4853 48.3272L57.5147 65.2978C56.2971 64.0802 55.4062 62.2368 55.4062 60.0703C55.4062 57.8664 56.3448 55.7328 57.9724 54.268L74.0276 72.107ZM74.4853 48.3272L65.6728 39.5147L48.7022 56.4853L57.5147 65.2978L74.4853 48.3272ZM65.6728 56.4853L74.4853 47.6728L57.5147 30.7022L48.7022 39.5147L65.6728 56.4853ZM74.0276 48.107C81.4614 41.4165 80.7843 30.6262 74.4853 24.3272L57.5147 41.2978C56.2971 40.0802 55.4062 38.2368 55.4062 36.0703C55.4062 33.8664 56.3448 31.7329 57.9724 30.268L74.0276 48.107ZM74.4853 24.3272C67.8805 17.7224 57.7794 18.3292 51.5974 23.893L67.6526 41.732C65.2206 43.9208 60.7445 44.5276 57.5147 41.2978L74.4853 24.3272ZM51.1397 24.3272L42.3272 33.1397L59.2978 50.1103L68.1103 41.2978L51.1397 24.3272ZM59.2978 33.1397L50.4853 24.3272L33.5147 41.2978L42.3272 50.1103L59.2978 33.1397ZM50.4853 24.3272C44.1115 17.9534 33.701 17.9534 27.3272 24.3272L44.2978 41.2978C41.299 44.2966 36.5135 44.2966 33.5147 41.2978L50.4853 24.3272Z" fill="white" mask="url(#path-2-outside-1_280_812)"/>
</svg>
