<svg width="106" height="106" viewBox="0 0 106 106" fill="none" xmlns="http://www.w3.org/2000/svg">
<g filter="url(#filter0_d_1302_45)">
<circle cx="53" cy="51" r="40" fill="white"/>
</g>
<path d="M50.125 48.25C51.625 46.625 54.25 46.625 55.75 48.25C57.375 49.75 57.375 52.375 55.75 53.875C54.25 55.5 51.625 55.5 50.125 53.875C48.5 52.375 48.5 49.75 50.125 48.25ZM53 20C70 20 84 34 84 51C84 68.125 70 82 53 82C35.875 82 22 68.125 22 51C22 34 35.875 20 53 20ZM68.75 38.625C69.625 36.5 67.5 34.375 65.375 35.25L47.375 43.5C46.5 44 45.875 44.625 45.375 45.5L37.125 63.5C36.25 65.625 38.375 67.75 40.5 66.875L58.5 58.625C59.375 58.125 60 57.5 60.5 56.625L68.75 38.625Z" fill="#ECA731"/>
<defs>
<filter id="filter0_d_1302_45" x="0" y="0" width="106" height="106" filterUnits="userSpaceOnUse" color-interpolation-filters="sRGB">
<feFlood flood-opacity="0" result="BackgroundImageFix"/>
<feColorMatrix in="SourceAlpha" type="matrix" values="0 0 0 0 0 0 0 0 0 0 0 0 0 0 0 0 0 0 127 0" result="hardAlpha"/>
<feMorphology radius="3" operator="dilate" in="SourceAlpha" result="effect1_dropShadow_1302_45"/>
<feOffset dy="2"/>
<feGaussianBlur stdDeviation="5"/>
<feComposite in2="hardAlpha" operator="out"/>
<feColorMatrix type="matrix" values="0 0 0 0 0 0 0 0 0 0 0 0 0 0 0 0 0 0 0.1 0"/>
<feBlend mode="normal" in2="BackgroundImageFix" result="effect1_dropShadow_1302_45"/>
<feBlend mode="normal" in="SourceGraphic" in2="effect1_dropShadow_1302_45" result="shape"/>
</filter>
</defs>
</svg>
