<svg width="21" height="24" viewBox="0 0 21 24" fill="none" xmlns="http://www.w3.org/2000/svg">
<path d="M11.25 0H11.4375C14.2031 0 16.5 2.29688 16.4531 5.0625C16.4531 5.39062 16.4531 5.71875 16.3594 6.04688C16.5469 6.04688 16.7344 6.09375 16.9219 6.1875L18.6094 6.70312C20.0156 7.21875 21 8.53125 21 10.0312C21 11.9531 19.4062 13.5 17.4844 13.5H3.46875C1.54688 13.5 0 11.9531 0 10.0312C0 8.53125 0.9375 7.21875 2.34375 6.70312L4.03125 6.1875C4.17188 6.14062 4.3125 6.09375 4.5 6.04688V6C4.5 4.35938 5.8125 3 7.5 3H10.4062C10.875 3 11.25 2.625 11.25 2.20312C11.25 1.96875 11.1562 1.73438 10.9688 1.59375L10.6875 1.3125C10.5 1.07812 10.4062 0.75 10.5469 0.46875C10.6406 0.1875 10.9219 0 11.25 0ZM12.5156 24H8.4375L7.3125 15H13.6406L12.5156 24ZM3 15H5.76562L6.89062 24H6.375C5.29688 24 4.35938 23.2031 4.17188 22.125L3 15ZM14.0625 24L15.1875 15H18L16.7812 22.125C16.5938 23.2031 15.6562 24 14.5781 24H14.0625Z" fill="black"/>
</svg>
