<svg width="30" height="24" viewBox="0 0 30 24" fill="none" xmlns="http://www.w3.org/2000/svg">
<path d="M1.875 0.75C2.0625 0.796875 2.20312 0.9375 2.25 1.125L2.57812 7.125H3.375L4.125 1.125C4.125 0.9375 4.3125 0.75 4.5 0.75C4.6875 0.75 4.82812 0.890625 4.82812 1.125L5.57812 7.125H6.375L6.75 1.125C6.75 0.9375 6.89062 0.796875 7.07812 0.75C7.26562 0.75 7.40625 0.890625 7.45312 1.07812L8.90625 7.07812C8.95312 7.35938 9 7.59375 9 7.875C9 9.75 7.45312 11.25 5.625 11.25V22.125C5.625 22.7812 5.10938 23.25 4.5 23.25C3.84375 23.25 3.375 22.7812 3.375 22.125V11.25C1.5 11.25 0 9.75 0 7.875C0 7.59375 0 7.35938 0.046875 7.07812L1.5 1.07812C1.54688 0.890625 1.6875 0.75 1.875 0.796875V0.75ZM28.7344 0.796875C28.8281 0.796875 28.9219 0.75 29.0156 0.75C29.5312 0.75 30 1.21875 30 1.73438V10.125V15V22.125C30 22.7812 29.4844 23.25 28.875 23.25C28.2188 23.25 27.75 22.7812 27.75 22.125V15H25.5C24.6562 15 24 14.3438 24 13.5V7.5C24 2.8125 27.9375 1.125 28.7344 0.796875ZM10.3594 6.75L9.5625 3.51562C11.2969 2.25 13.4531 1.5 15.75 1.5C18.5625 1.5 21.1406 2.625 23.0156 4.45312C22.6875 5.34375 22.5 6.32812 22.5 7.5V8.76562C21.2812 6.23438 18.7031 4.5 15.75 4.5C13.6406 4.5 11.7188 5.39062 10.3594 6.79688V6.75ZM15.75 22.5C12.1406 22.5 9 20.7188 7.125 18V12.5156C7.5 12.375 7.875 12.2344 8.25 12C8.25 16.1719 11.5781 19.5 15.75 19.5C18.9375 19.5 21.6562 17.5312 22.7344 14.7188C23.1562 15.7031 24.0938 16.4062 25.2188 16.5C23.5312 20.0625 19.9219 22.5 15.75 22.5ZM9.75 12C9.75 9.89062 10.875 7.92188 12.75 6.84375C14.5781 5.76562 16.875 5.76562 18.75 6.84375C20.5781 7.92188 21.75 9.89062 21.75 12C21.75 14.1562 20.5781 16.125 18.75 17.2031C16.875 18.2812 14.5781 18.2812 12.75 17.2031C10.875 16.125 9.75 14.1562 9.75 12Z" fill="black"/>
</svg>
