<svg width="25" height="24" viewBox="0 0 25 24" fill="none" xmlns="http://www.w3.org/2000/svg">
<path d="M22 6.75C22 4.6875 20.3125 3 18.25 3C16.9844 3 15.9062 3.60938 15.25 4.5H11.875C12.8125 1.92188 15.2969 0 18.25 0C21.9531 0 25 3.04688 25 6.75C25 10.4531 22.0469 13.4531 18.3906 13.5L18.7188 10.5C20.5469 10.2656 22 8.67188 22 6.75ZM12.6719 10.5V10.5938L12.625 10.5H12.6719ZM1.375 6.51562C1.65625 6.1875 2.07812 6 2.5 6H16C16.4219 6 16.7969 6.1875 17.0781 6.51562C17.3594 6.84375 17.5 7.26562 17.4531 7.6875L16.0938 21.3281C15.9531 22.875 14.6406 24 13.1406 24H5.35938C3.8125 24 2.5 22.875 2.35938 21.3281L1 7.6875C0.953125 7.26562 1.09375 6.84375 1.375 6.51562ZM4.14062 9L4.42188 12H14.0312L14.3125 9H4.14062Z" fill="black"/>
</svg>
