<svg width="24" height="22" viewBox="0 0 24 22" fill="none" xmlns="http://www.w3.org/2000/svg">
<path d="M10.5469 20.9844L10.4531 20.8438L2.25 13.25C0.796875 11.8906 0 10.0156 0 8.04688V7.90625C0 4.625 2.34375 1.76562 5.57812 1.15625C7.40625 0.78125 9.28125 1.20312 10.8281 2.28125C11.25 2.5625 11.625 2.9375 12 3.3125C12.1875 3.125 12.375 2.89062 12.6094 2.70312C12.7969 2.5625 12.9844 2.42188 13.1719 2.28125C14.6719 1.20312 16.5469 0.78125 18.375 1.15625C21.6562 1.76562 24 4.625 24 7.90625V8.04688C24 10.0156 23.1562 11.8906 21.7031 13.25L13.5 20.8438L13.4062 20.9844C13.0312 21.3125 12.5156 21.5469 12 21.5469C11.4375 21.5469 10.9688 21.3125 10.5469 20.9844ZM11.2031 5.79688C11.1562 5.79688 11.1562 5.79688 11.1562 5.75L10.3125 4.8125C9.23438 3.59375 7.59375 3.07812 6 3.35938C3.79688 3.78125 2.25 5.70312 2.25 7.90625V8.04688C2.25 9.40625 2.76562 10.6719 3.75 11.5625L12 19.2031L20.2031 11.5625C21.1875 10.6719 21.75 9.40625 21.75 8.04688V7.90625C21.75 5.70312 20.1562 3.78125 17.9531 3.35938C16.3594 3.07812 14.7188 3.59375 13.6406 4.8125L12.7969 5.75C12.7969 5.79688 12.7969 5.79688 12.75 5.84375C12.5625 6.03125 12.2812 6.17188 12 6.17188C11.6719 6.17188 11.3906 6.03125 11.2031 5.84375V5.79688Z" fill="black"/>
</svg>
