<svg width="24" height="22" viewBox="0 0 24 22" fill="none" xmlns="http://www.w3.org/2000/svg">
<path d="M2.20312 13.1094C0.796875 11.7969 0 9.92188 0 7.95312V7.71875C0 4.4375 2.34375 1.625 5.57812 1.10938C7.73438 0.734375 9.89062 1.4375 11.4375 2.9375L12 3.5L12.5625 2.9375C14.0625 1.4375 16.2656 0.734375 18.375 1.10938C21.6094 1.625 24 4.4375 24 7.71875V7.95312C24 9.92188 23.1562 11.7969 21.75 13.1094L13.2656 21.0312C12.9375 21.3594 12.4688 21.5 12 21.5C11.4844 21.5 11.0156 21.3594 10.6875 21.0312L2.20312 13.1094Z" fill="#ECA731"/>
</svg>
