<svg width="35" height="40" viewBox="0 0 35 40" fill="none" xmlns="http://www.w3.org/2000/svg">
<path d="M32.5 0C33.8281 0 35 1.17188 35 2.5V18.75V27.5V37.5C35 38.9062 33.8281 40 32.5 40C31.0938 40 30 38.9062 30 37.5V27.5H27.5C24.6875 27.5 22.5 25.3125 22.5 22.5V13.75C22.5 2.5 31.25 0 32.5 0ZM5 1.25V11.7969C5 12.1875 5.3125 12.5 5.70312 12.5C6.17188 12.5 6.48438 12.2656 6.48438 11.7969L7.5 1.17188C7.5 0.546875 8.04688 0 8.75 0C9.375 0 9.92188 0.546875 9.92188 1.17188L10.9375 11.7969C10.9375 12.2656 11.3281 12.5 11.7188 12.5C12.1094 12.5 12.5 12.1875 12.5 11.7969V1.25C12.5 0.625 12.9688 0.078125 13.5938 0.078125C14.2188 0 14.7656 0.390625 14.9219 1.01562L17.2656 11.6406C17.4219 12.1875 17.5 12.6562 17.5 13.125C17.5 16.7188 14.6875 19.6875 11.25 20V37.5C11.25 38.9062 10.0781 40 8.75 40C7.34375 40 6.25 38.9062 6.25 37.5V20C2.73438 19.6875 0 16.7188 0 13.125C0 12.6562 0 12.1875 0.15625 11.6406L2.5 1.01562C2.65625 0.390625 3.20312 0 3.82812 0.078125C4.45312 0.078125 5 0.625 5 1.25ZM8.75 13.125H8.67188H8.75Z" fill="black"/>
</svg>
