<svg width="54" height="54" viewBox="0 0 54 54" fill="none" xmlns="http://www.w3.org/2000/svg">
<g filter="url(#filter0_d_454_1640)">
<circle cx="27" cy="23" r="20" fill="#ECA731"/>
<circle cx="27" cy="23" r="21.5" stroke="white" stroke-width="3"/>
</g>
<path d="M16.111 15.7508C16.111 13.5993 17.2777 11.5911 19.2221 10.4914C21.1179 9.3917 23.4999 9.3917 25.4443 10.4914C27.3402 11.5911 28.5554 13.5993 28.5554 15.7508C28.5554 17.9502 27.3402 19.9584 25.4443 21.0581C23.4999 22.1578 21.1179 22.1578 19.2221 21.0581C17.2777 19.9584 16.111 17.9502 16.111 15.7508ZM11.4443 32.7245C11.4443 27.991 15.2846 24.1659 20.0971 24.1659H24.5207C29.3332 24.1659 33.2221 27.991 33.2221 32.7245C33.2221 33.4895 32.5416 34.1111 31.7638 34.1111H12.8541C12.0763 34.1111 11.4443 33.4895 11.4443 32.7245ZM41.0485 34.1111H34.3402C34.5832 33.6808 34.7777 33.1548 34.7777 32.5811V32.1985C34.7777 29.3298 33.4166 26.7 31.3749 24.9788C31.4721 24.9788 31.5693 24.931 31.7152 24.931H34.6804C39.0068 24.931 42.5554 28.4213 42.5554 32.6767C42.5554 33.4895 41.8749 34.1111 41.0485 34.1111ZM32.4443 21.8709C30.9374 21.8709 29.5763 21.2972 28.5554 20.3409C29.5277 19.0499 30.111 17.4721 30.111 15.7508C30.111 14.5077 29.7707 13.2646 29.1874 12.2127C30.111 11.5911 31.2291 11.1608 32.4443 11.1608C35.4096 11.1608 37.8888 13.5993 37.8888 16.5159C37.8888 19.4803 35.4096 21.8709 32.4443 21.8709Z" fill="white"/>
<defs>
<filter id="filter0_d_454_1640" x="0" y="0" width="54" height="54" filterUnits="userSpaceOnUse" color-interpolation-filters="sRGB">
<feFlood flood-opacity="0" result="BackgroundImageFix"/>
<feColorMatrix in="SourceAlpha" type="matrix" values="0 0 0 0 0 0 0 0 0 0 0 0 0 0 0 0 0 0 127 0" result="hardAlpha"/>
<feOffset dy="4"/>
<feGaussianBlur stdDeviation="2"/>
<feComposite in2="hardAlpha" operator="out"/>
<feColorMatrix type="matrix" values="0 0 0 0 0 0 0 0 0 0 0 0 0 0 0 0 0 0 0.25 0"/>
<feBlend mode="normal" in2="BackgroundImageFix" result="effect1_dropShadow_454_1640"/>
<feBlend mode="normal" in="SourceGraphic" in2="effect1_dropShadow_454_1640" result="shape"/>
</filter>
</defs>
</svg>
