<svg width="50" height="36" viewBox="0 0 50 36" fill="none" xmlns="http://www.w3.org/2000/svg">
<path d="M0 26.9062C0 26.4375 0 25.8906 0.078125 25.4219L2.65625 10.5C3.28125 6.59375 5.85938 3.23438 9.6875 2.29688C13.2812 1.35938 18.4375 0.5 25 0.5C31.4844 0.5 36.6406 1.35938 40.2344 2.29688C44.0625 3.23438 46.6406 6.59375 47.2656 10.5L49.8438 25.4219C49.9219 25.8906 50 26.4375 50 26.9062V27.1406C50 31.75 46.1719 35.5 41.5625 35.5C37.6562 35.5 34.2969 32.9219 33.3594 29.1719L33.125 28H16.875L16.5625 29.1719C15.625 32.9219 12.2656 35.5 8.35938 35.5C3.75 35.5 0 31.75 0 27.1406V26.9062ZM33.75 16.125C32.5781 16.125 31.5625 16.75 31.0156 17.6875C30.4688 18.7031 30.4688 19.875 31.0156 20.8125C31.5625 21.8281 32.5781 22.375 33.75 22.375C34.8438 22.375 35.8594 21.8281 36.4062 20.8125C36.9531 19.875 36.9531 18.7031 36.4062 17.6875C35.8594 16.75 34.8438 16.125 33.75 16.125ZM35.625 11.75C35.625 12.9219 36.1719 13.9375 37.1875 14.4844C38.125 15.0312 39.2969 15.0312 40.3125 14.4844C41.25 13.9375 41.875 12.9219 41.875 11.75C41.875 10.6562 41.25 9.64062 40.3125 9.09375C39.2969 8.54688 38.125 8.54688 37.1875 9.09375C36.1719 9.64062 35.625 10.6562 35.625 11.75ZM16.875 11.125C16.875 10.1094 16.0156 9.25 15 9.25C13.9062 9.25 13.125 10.1094 13.125 11.125V13.625H10.625C9.53125 13.625 8.75 14.4844 8.75 15.5C8.75 16.5938 9.53125 17.375 10.625 17.375H13.125V19.875C13.125 20.9688 13.9062 21.75 15 21.75C16.0156 21.75 16.875 20.9688 16.875 19.875V17.375H19.375C20.3906 17.375 21.25 16.5938 21.25 15.5C21.25 14.4844 20.3906 13.625 19.375 13.625H16.875V11.125Z" fill="black"/>
</svg>
