<svg width="54" height="54" viewBox="0 0 54 54" fill="none" xmlns="http://www.w3.org/2000/svg">
<g filter="url(#filter0_d_419_23)">
<circle cx="27" cy="23" r="20" fill="#ECA731"/>
<circle cx="27" cy="23" r="21.5" stroke="white" stroke-width="3"/>
</g>
<path d="M19.5693 12.0898L18.3714 14.4853L23.6839 10.0587C24.4131 9.48588 25.4548 9.53796 26.0277 10.267C26.6006 10.9961 26.5485 12.0377 25.8193 12.6105L21.5485 16.1518L26.8089 14.7457C27.6943 14.4853 28.6318 15.0061 28.8923 15.8914C29.1006 16.7767 28.5798 17.7141 27.6943 17.9225L23.4756 19.0682C24.7777 19.4848 25.8714 20.3701 26.5485 21.5158C26.9652 22.349 26.7048 23.3385 25.9235 23.8072C25.1423 24.2759 24.1006 24.0155 23.6318 23.1823C23.2673 22.5574 22.5902 22.1407 21.861 22.1407C20.6631 22.1407 19.7777 23.0781 19.7777 24.2238C19.7777 25.4216 20.6631 26.3069 21.861 26.3069C22.5902 26.3069 23.2673 25.8903 23.6318 25.2654C24.1006 24.4842 25.1423 24.2238 25.9235 24.6925C26.7048 25.1612 26.9652 26.1507 26.5485 26.9319C25.6631 28.4421 24.1006 29.4837 22.2777 29.6399H21.861H18.111C14.4131 29.6399 11.4443 26.6715 11.4443 22.974V22.5053C11.4443 21.4637 11.6527 20.4743 12.1214 19.5369L16.6006 10.5795C17.0173 9.74627 18.0068 9.4338 18.8402 9.85042C19.6735 10.267 19.986 11.2565 19.5693 12.0898ZM36.6006 33.9103L37.7985 31.5147L32.486 35.9413C31.7568 36.5142 30.7152 36.4621 30.1423 35.733C29.5693 35.0039 29.6214 33.9624 30.3506 33.3895L34.6214 29.8482L29.361 31.2543C28.4756 31.5147 27.5381 30.9939 27.3298 30.1086C27.0693 29.2233 27.5902 28.2859 28.4756 28.0776L32.6943 26.9319C31.3923 26.5153 30.2985 25.6299 29.6214 24.4322C29.2048 23.651 29.4652 22.6615 30.2464 22.1928C31.0277 21.7241 32.0693 21.9845 32.5381 22.7657C32.9027 23.3906 33.5798 23.8072 34.361 23.8072C35.5068 23.8072 36.4443 22.9219 36.4443 21.7241C36.4443 20.5784 35.5068 19.641 34.361 19.641C33.5798 19.641 32.9027 20.0576 32.5381 20.6826C32.0693 21.5158 31.0277 21.7762 30.2464 21.3075C29.4652 20.8388 29.2048 19.8493 29.6214 19.0161C30.5068 17.5579 32.0693 16.4643 33.9443 16.3601V16.308H34.361H38.111C41.7568 16.308 44.7777 19.3285 44.7777 22.974V23.4948C44.7777 24.5363 44.5173 25.5258 44.0485 26.4632L39.5693 35.4205C39.1527 36.2538 38.1631 36.5662 37.3298 36.1496C36.4964 35.733 36.1839 34.7435 36.6006 33.9103Z" fill="white"/>
<defs>
<filter id="filter0_d_419_23" x="0" y="0" width="54" height="54" filterUnits="userSpaceOnUse" color-interpolation-filters="sRGB">
<feFlood flood-opacity="0" result="BackgroundImageFix"/>
<feColorMatrix in="SourceAlpha" type="matrix" values="0 0 0 0 0 0 0 0 0 0 0 0 0 0 0 0 0 0 127 0" result="hardAlpha"/>
<feOffset dy="4"/>
<feGaussianBlur stdDeviation="2"/>
<feComposite in2="hardAlpha" operator="out"/>
<feColorMatrix type="matrix" values="0 0 0 0 0 0 0 0 0 0 0 0 0 0 0 0 0 0 0.25 0"/>
<feBlend mode="normal" in2="BackgroundImageFix" result="effect1_dropShadow_419_23"/>
<feBlend mode="normal" in="SourceGraphic" in2="effect1_dropShadow_419_23" result="shape"/>
</filter>
</defs>
</svg>
