<svg width="46" height="40" viewBox="0 0 46 40" fill="none" xmlns="http://www.w3.org/2000/svg">
<path d="M11.5625 6.01562C11.5625 2.73438 14.2188 0 17.5 0C19.0625 0 20.625 0.703125 21.7188 1.79688L22.5 2.5L23.2031 1.79688C24.2969 0.703125 25.8594 0 27.4219 0C30.7031 0 33.4375 2.73438 33.4375 6.01562C33.4375 7.57812 32.7344 9.14062 31.6406 10.2344L23.5938 18.3594C22.9688 18.9062 21.9531 18.9062 21.3281 18.3594L13.2812 10.2344C12.1875 9.14062 11.5625 7.57812 11.5625 6.01562ZM44.375 26.3281C45.3906 27.7344 45.0781 29.6875 43.6719 30.7031L33.8281 37.9688C31.9531 39.2969 29.7656 40 27.5 40H15H2.5C1.09375 40 0 38.9062 0 37.5V32.5C0 31.1719 1.09375 30 2.5 30H5.3125L8.82812 27.1875C10.625 25.7812 12.8125 25 15.0781 25H21.25H22.5H27.5C28.8281 25 30 26.1719 30 27.5C30 28.9062 28.8281 30 27.5 30H22.5H21.25C20.5469 30 20 30.625 20 31.25C20 31.9531 20.5469 32.5 21.25 32.5H30.625L40 25.625C41.4062 24.6094 43.3594 24.9219 44.375 26.3281ZM15.0781 30H15C15.0781 30 15.0781 30 15.0781 30Z" fill="black"/>
</svg>
