<svg width="46" height="39" viewBox="0 0 46 39" fill="none" xmlns="http://www.w3.org/2000/svg">
<path d="M3.67188 21.5684C1.32812 19.3809 0 16.2559 0 12.9746V12.584C0 7.11523 3.90625 2.42773 9.29688 1.56836C12.8906 0.943359 16.4844 2.11523 19.0625 4.61523L20 5.55273L20.9375 4.61523C23.4375 2.11523 27.1094 0.943359 30.625 1.56836C36.0156 2.42773 40 7.11523 40 12.584V12.9746C40 13.5215 39.9219 13.9902 39.8438 14.5371C38.0469 13.5996 35.9375 13.0527 33.75 13.0527C26.0938 13.0527 20 19.2246 20 26.8027C20 29.6934 20.8594 32.3496 22.3438 34.5371L22.1094 34.7715C21.5625 35.3184 20.7812 35.5527 20 35.5527C19.1406 35.5527 18.3594 35.3184 17.8125 34.7715L3.67188 21.5684ZM33.75 38.0527C29.6875 38.0527 26.0156 35.9434 23.9844 32.4277C21.9531 28.9902 21.9531 24.6934 23.9844 21.1777C26.0156 17.7402 29.6875 15.5527 33.75 15.5527C37.7344 15.5527 41.4062 17.7402 43.4375 21.1777C45.4688 24.6934 45.4688 28.9902 43.4375 32.4277C41.4062 35.9434 37.7344 38.0527 33.75 38.0527ZM35 21.8027C35 21.1777 34.375 20.5527 33.75 20.5527C33.0469 20.5527 32.5 21.1777 32.5 21.8027V25.5527H28.75C28.0469 25.5527 27.5 26.1777 27.5 26.8027C27.5 27.5059 28.0469 28.0527 28.75 28.0527H32.5V31.8027C32.5 32.5059 33.0469 33.0527 33.75 33.0527C34.375 33.0527 35 32.5059 35 31.8027V28.0527H38.75C39.375 28.0527 40 27.5059 40 26.8027C40 26.1777 39.375 25.5527 38.75 25.5527H35V21.8027Z" fill="black"/>
</svg>
