<svg width="30" height="42" viewBox="0 0 30 42" fill="none" xmlns="http://www.w3.org/2000/svg">
<path d="M15 4.75C15 3.42188 15.7031 2.25 16.875 1.54688C17.9688 0.84375 19.4531 0.84375 20.625 1.54688C21.7188 2.25 22.5 3.42188 22.5 4.75C22.5 6.15625 21.7188 7.32812 20.625 8.03125C19.4531 8.73438 17.9688 8.73438 16.875 8.03125C15.7031 7.32812 15 6.15625 15 4.75ZM18.9844 19.0469L17.5 24.9844L21.3281 28.8906C22.0312 29.5938 22.5 30.5312 22.5 31.5469V38.5C22.5 39.9062 21.3281 41 20 41C18.5938 41 17.5 39.9062 17.5 38.5V32.0938L11.7188 26.3125C10.4688 25.0625 9.92188 23.2656 10.3906 21.625L11.9531 15.0625C12.5781 12.3281 15.3125 10.7656 17.9688 11.3906C19.4531 11.7812 20.7031 12.7188 21.5625 13.9688L23.8281 17.25H26.25V15.375C26.25 14.3594 27.0312 13.5 28.125 13.5C29.1406 13.5 30 14.3594 30 15.375V19.75V19.8281V39.125C30 40.2188 29.1406 41 28.125 41C27.0312 41 26.25 40.2188 26.25 39.125V22.25H23.125C21.875 22.25 20.7031 21.625 20 20.6094L18.9844 19.0469ZM6.32812 37.875L9.14062 27.0938C9.375 27.4844 9.60938 27.7969 9.92188 28.0312L13.2031 31.3125L11.0938 39.2031C10.7812 40.5312 9.375 41.3125 8.04688 40.9219C6.71875 40.6094 5.9375 39.2031 6.32812 37.875ZM10.625 10.8438L7.89062 21.8594C7.65625 22.7969 6.71875 23.4219 5.78125 23.2656L2.03125 22.6406C0.9375 22.4844 0.234375 21.3906 0.546875 20.2969L2.42188 13.1094C3.20312 10.4531 5.70312 8.5 8.51562 8.5H8.82812C10 8.5 10.9375 9.67188 10.625 10.8438Z" fill="black"/>
</svg>
