<svg width="51" height="41" viewBox="0 0 51 41" fill="none" xmlns="http://www.w3.org/2000/svg">
<path d="M30.7031 1.78125C31.6406 0.765625 33.2812 0.765625 34.2188 1.78125L44.2188 11.7812C44.9219 12.4844 45.1562 13.5781 44.7656 14.5156C44.375 15.4531 43.5156 16.0781 42.5 16.0781H40.1562L46.9531 24.4375C47.5 25.2188 47.6562 26.2344 47.1875 27.0938C46.7969 27.9531 45.9375 28.5 45 28.5H42.6562L49.4531 36.9375C50 37.7188 50.1562 38.7344 49.6875 39.5938C49.2969 40.4531 48.4375 41 47.5 41H31.25C32.0312 39.9844 32.5 38.6562 32.5 37.25V22.7188C32.5 20.9219 31.7188 19.2812 30.4688 18.1094L22.0312 10.375L30.7031 1.78125ZM0 22.7188C0 21.625 0.390625 20.6094 1.17188 19.9062L12.4219 9.59375C13.9062 8.26562 16.0938 8.26562 17.5 9.59375L28.75 19.9062C29.5312 20.6094 30 21.625 30 22.7188V37.25C30 39.3594 28.2812 41 26.25 41H3.75C1.64062 41 0 39.3594 0 37.25V22.7188ZM11.25 24.125V27.875C11.25 28.9688 12.0312 29.75 13.125 29.75H16.875C17.8906 29.75 18.75 28.9688 18.75 27.875V24.125C18.75 23.1094 17.8906 22.25 16.875 22.25H13.125C12.0312 22.25 11.25 23.1094 11.25 24.125Z" fill="black"/>
</svg>
