<svg width="42" height="33" viewBox="0 0 42 33" fill="none" xmlns="http://www.w3.org/2000/svg">
<path d="M20.6875 8.97656C20.8281 8.83594 21.0391 8.76562 21.25 8.76562C21.3906 8.76562 21.6016 8.83594 21.7422 8.97656L34.75 19.5938V31.125C34.75 31.7578 34.1875 32.25 33.625 32.25H25.6797C25.1172 32.25 24.5547 31.7578 24.5547 31.125V24.375C24.5547 23.8125 24.0625 23.25 23.4297 23.25H18.9297C18.3672 23.25 17.8047 23.8125 17.8047 24.375V31.125C17.8047 31.7578 17.3125 32.25 16.75 32.25H8.875C8.24219 32.25 7.75 31.7578 7.75 31.125V19.6641L20.6875 8.97656ZM41.1484 16.2188C41.3594 16.3594 41.5 16.6406 41.5 16.8516C41.5 17.0625 41.4297 17.2734 41.2891 17.4141L39.4609 19.5938C39.3203 19.8047 39.1094 19.875 38.8281 19.875C38.6172 19.875 38.4062 19.8047 38.2656 19.6641L21.7422 6.09375C21.6016 5.95312 21.3906 5.88281 21.25 5.88281C21.0391 5.88281 20.8281 5.95312 20.6875 6.09375L4.16406 19.6641C4.02344 19.8047 3.8125 19.875 3.60156 19.875C3.32031 19.875 3.10938 19.8047 2.96875 19.5938L1.14062 17.4141C1.07031 17.2734 0.929688 17.0625 0.929688 16.8516C0.929688 16.6406 1.07031 16.3594 1.28125 16.2188L19.0703 1.52344C19.6328 1.10156 20.4062 0.820312 21.25 0.820312C22.0234 0.820312 22.7969 1.10156 23.3594 1.52344L29.6875 6.72656V1.66406C29.6875 1.17188 30.0391 0.820312 30.5312 0.820312H34.4688C34.8906 0.820312 35.3125 1.17188 35.3125 1.66406V11.3672L41.1484 16.2188Z" fill="black"/>
</svg>
