<svg width="28" height="40" viewBox="0 0 28 40" fill="none" xmlns="http://www.w3.org/2000/svg">
<path d="M20.25 30H7.75C6.96875 27.5781 5.40625 25.3906 3.84375 23.2812C3.45312 22.7344 3.0625 22.1875 2.67188 21.6406C1.10938 19.375 0.25 16.7188 0.25 13.75C0.25 6.17188 6.34375 0 14 0C21.5781 0 27.75 6.17188 27.75 13.8281C27.75 16.7188 26.8125 19.375 25.25 21.6406C24.8594 22.1875 24.4688 22.7344 24.0781 23.2812C22.5156 25.3906 20.9531 27.5781 20.25 30ZM14 40C10.4844 40 7.75 37.2656 7.75 33.75V32.5H20.25V33.75C20.25 37.2656 17.4375 40 14 40ZM7.75 13.75C7.75 10.3125 10.4844 7.5 14 7.5C14.625 7.5 15.25 6.95312 15.25 6.25C15.25 5.625 14.625 5 14 5C9.15625 5 5.25 8.98438 5.25 13.75C5.25 14.4531 5.79688 15 6.5 15C7.125 15 7.75 14.4531 7.75 13.75Z" fill="black"/>
</svg>
