<svg width="40" height="36" viewBox="0 0 40 36" fill="none" xmlns="http://www.w3.org/2000/svg">
<path d="M17.8125 34.7188L3.67188 21.5156C3.35938 21.2031 3.04688 20.8906 2.73438 20.5H9.53125C11.3281 20.5 12.8906 19.4844 13.5938 17.8438L14.375 15.8906L18.2812 24.4062C18.5938 25.1094 19.2188 25.5 19.9219 25.5C20.625 25.5 21.3281 25.1094 21.6406 24.4844L25 17.8438L25.0781 18.1562C25.8594 19.6406 27.3438 20.5781 28.9844 20.5781H37.1875C36.875 20.8906 36.5625 21.2031 36.25 21.5156L22.1094 34.7188C21.5625 35.2656 20.7812 35.5 20 35.5C19.1406 35.5 18.3594 35.2656 17.8125 34.7188ZM39.2969 16.75H28.9844C28.75 16.75 28.5156 16.6719 28.4375 16.4375L26.6406 12.8438C26.3281 12.2188 25.625 11.75 24.9219 11.75C24.2188 11.75 23.5938 12.2188 23.2812 12.8438L20 19.3281L16.0156 10.4219C15.7812 9.71875 15.0781 9.25 14.2969 9.32812C13.5938 9.32812 12.8906 9.71875 12.5781 10.4219L10.1562 16.4375C10 16.6719 9.76562 16.8281 9.53125 16.8281H1.25C1.01562 16.8281 0.859375 16.8281 0.625 16.9062C0.234375 15.6562 0 14.3281 0 12.9219V12.5312C0 7.0625 3.90625 2.375 9.29688 1.51562C12.8906 0.890625 16.4844 2.0625 19.0625 4.5625L20 5.5L20.9375 4.5625C23.4375 2.0625 27.1094 0.890625 30.625 1.51562C36.0156 2.375 40 7.0625 40 12.5312V12.9219C40 14.25 39.7656 15.5781 39.2969 16.75Z" fill="black"/>
</svg>
