<svg width="30" height="41" viewBox="0 0 30 41" fill="none" xmlns="http://www.w3.org/2000/svg">
<path d="M16.7969 39.0625C15.8594 40.2344 14.0625 40.2344 13.125 39.0625C9.14062 33.9844 0 21.875 0 15C0 6.71875 6.71875 0 15 0C23.2812 0 30 6.71875 30 15C30 21.875 20.8594 33.9844 16.7969 39.0625ZM10 10C8.59375 10 7.5 11.1719 7.5 12.5C7.5 13.9062 8.59375 15 10 15C11.3281 15 12.5 13.9062 12.5 12.5C12.5 11.1719 11.3281 10 10 10ZM17.5 12.5C17.5 13.9062 18.5938 15 20 15C21.3281 15 22.5 13.9062 22.5 12.5C22.5 11.1719 21.3281 10 20 10C18.5938 10 17.5 11.1719 17.5 12.5ZM10 19.1406C9.53125 18.4375 8.59375 18.2812 7.8125 18.75C7.10938 19.2188 6.95312 20.1562 7.42188 20.9375C8.28125 22.2656 10.9375 24.6875 15 24.6875C18.9844 24.6875 21.6406 22.2656 22.5 20.9375C22.9688 20.1562 22.8125 19.2188 22.1094 18.75C21.3281 18.2812 20.3906 18.4375 19.9219 19.1406C19.4531 19.9219 17.6562 21.5625 15 21.5625C12.2656 21.5625 10.4688 19.9219 10 19.1406Z" fill="black"/>
</svg>
