<svg width="50" height="40" viewBox="0 0 50 40" fill="none" xmlns="http://www.w3.org/2000/svg">
<path d="M15 5C15 2.26562 17.1875 0 20 0H45C47.7344 0 50 2.26562 50 5V10.4688C48.9844 10 47.8125 9.92188 46.7188 10.3125L38.9844 12.8906L36.0156 8.125C35.7812 7.73438 35.3906 7.57812 35 7.57812C34.5312 7.57812 34.1406 7.73438 33.9062 8.125L30.3125 13.9062L29.0625 12.4219C28.8281 12.1094 28.5156 11.875 28.125 11.875C27.7344 11.875 27.3438 12.1094 27.1094 12.4219L22.7344 18.0469C22.4219 18.3594 22.4219 18.9062 22.5781 19.375C22.8125 19.7656 23.2812 20.0781 23.75 20.0781H28.75V25.0781H20C17.1875 25.0781 15 22.8125 15 20.0781V5ZM24.9219 31.6406C23.8281 32.4219 22.9688 33.5938 22.5781 35H5C2.1875 35 0 32.8125 0 30V12.5C0 9.76562 2.1875 7.5 5 7.5H12.5V28.125C12.5 29.5312 13.5938 30.625 15 30.625H26.7188C26.0938 30.9375 25.4688 31.25 24.9219 31.6406ZM25 7.5C25 6.17188 23.8281 5 22.5 5C21.0938 5 20 6.17188 20 7.5C20 8.90625 21.0938 10 22.5 10C23.8281 10 25 8.90625 25 7.5ZM4.375 13.125V14.375C4.375 15.0781 4.92188 15.625 5.625 15.625H6.875C7.5 15.625 8.125 15.0781 8.125 14.375V13.125C8.125 12.5 7.5 11.875 6.875 11.875H5.625C4.92188 11.875 4.375 12.5 4.375 13.125ZM5.625 19.375C4.92188 19.375 4.375 20 4.375 20.625V21.875C4.375 22.5781 4.92188 23.125 5.625 23.125H6.875C7.5 23.125 8.125 22.5781 8.125 21.875V20.625C8.125 20 7.5 19.375 6.875 19.375H5.625ZM4.375 28.125V29.375C4.375 30.0781 4.92188 30.625 5.625 30.625H6.875C7.5 30.625 8.125 30.0781 8.125 29.375V28.125C8.125 27.5 7.5 26.875 6.875 26.875H5.625C4.92188 26.875 4.375 27.5 4.375 28.125ZM49.2188 12.8906C49.6875 13.2031 50 13.8281 50 14.375V18.125V30.625C50 30.7812 49.9219 30.8594 49.9219 30.9375C49.9219 31.0938 50 31.1719 50 31.25C50 33.3594 47.7344 35 45 35C42.1875 35 40 33.3594 40 31.25C40 29.2188 42.1875 27.5 45 27.5C45.3906 27.5 45.7812 27.5781 46.25 27.6562V20.7812L35 24.5312V36.25C35 38.3594 32.7344 40 30 40C27.1875 40 25 38.3594 25 36.25C25 34.2188 27.1875 32.5 30 32.5C30.3906 32.5 30.7812 32.5781 31.25 32.6562V23.125V19.375C31.25 18.5938 31.7188 17.8906 32.5 17.6562L47.5 12.6562C48.0469 12.4219 48.6719 12.5 49.2188 12.8906Z" fill="black"/>
</svg>
