<svg width="25" height="22" viewBox="0 0 25 22" fill="none" xmlns="http://www.w3.org/2000/svg">
<path d="M8.875 17.0469C10.0938 17.5156 11.5 17.75 13 17.75C18.8125 17.75 22.75 14 22.75 10.25C22.75 6.54688 18.8125 2.75 13 2.75C7.14062 2.75 3.25 6.54688 3.25 10.25C3.25 11.75 3.8125 13.2031 4.89062 14.4688C5.3125 14.8906 5.5 15.5 5.45312 16.1094C5.40625 16.9531 5.17188 17.75 4.9375 18.4062C5.73438 18.0781 6.39062 17.6562 6.76562 17.375C7.375 16.9062 8.17188 16.8125 8.875 17.0469ZM2.21875 18.875C2.6875 18.125 3.10938 17.0938 3.20312 15.9219C1.79688 14.3281 1 12.4062 1 10.25C1 4.90625 6.34375 0.5 13 0.5C19.6094 0.5 25 4.90625 25 10.25C25 15.6406 19.6094 20 13 20C11.2656 20 9.625 19.7188 8.125 19.2031C7.5625 19.5781 6.625 20.1406 5.54688 20.6094C4.84375 20.9375 4.04688 21.2188 3.20312 21.3594C3.20312 21.3594 3.15625 21.4062 3.10938 21.4062C2.92188 21.4531 2.6875 21.4531 2.5 21.5H2.45312C2.21875 21.5 1.98438 21.5469 1.75 21.5469C1.42188 21.5469 1.14062 21.3594 1.04688 21.0781C0.90625 20.7969 1 20.4688 1.1875 20.2344C1.375 20.0469 1.5625 19.8125 1.75 19.625C1.79688 19.4844 1.89062 19.3906 1.9375 19.2969L1.98438 19.25C2.07812 19.1562 2.125 19.0156 2.21875 18.875ZM7.75 11.75C6.90625 11.75 6.25 11.0938 6.25 10.25C6.25 9.45312 6.90625 8.75 7.75 8.75C8.54688 8.75 9.25 9.45312 9.25 10.25C9.25 11.0938 8.54688 11.75 7.75 11.75ZM14.5 10.25C14.5 11.0938 13.7969 11.75 13 11.75C12.1562 11.75 11.5 11.0938 11.5 10.25C11.5 9.45312 12.1562 8.75 13 8.75C13.7969 8.75 14.5 9.45312 14.5 10.25ZM18.25 11.75C17.4062 11.75 16.75 11.0938 16.75 10.25C16.75 9.45312 17.4062 8.75 18.25 8.75C19.0469 8.75 19.75 9.45312 19.75 10.25C19.75 11.0938 19.0469 11.75 18.25 11.75Z" fill="#ECA731"/>
</svg>
