<svg width="28" height="40" viewBox="0 0 28 40" fill="none" xmlns="http://www.w3.org/2000/svg">
<path d="M13.75 27.5C9.53125 27.5 6.25 24.2188 6.25 20V7.5C6.25 3.35938 9.53125 0 13.75 0C17.8906 0 21.25 3.35938 21.25 7.5V20C21.25 24.2188 17.8906 27.5 13.75 27.5ZM26.25 15C26.875 15 27.5 15.625 27.5 16.25V20C27.5 26.9531 22.2656 32.7344 15.625 33.6719V36.25H20C20.625 36.25 21.25 36.875 21.25 37.5V38.75C21.25 39.4531 20.625 40 20 40H7.5C6.79688 40 6.25 39.4531 6.25 38.75V37.5C6.25 36.875 6.79688 36.25 7.5 36.25H11.875V33.5938C4.92188 32.6562 0 26.4062 0 19.4531V16.25C0 15.625 0.546875 15 1.25 15H2.5C3.125 15 3.75 15.625 3.75 16.25V19.6094C3.75 24.8438 7.5 29.4531 12.7344 30C18.6719 30.5469 23.75 25.8594 23.75 20V16.25C23.75 15.625 24.2969 15 25 15H26.25Z" fill="black"/>
</svg>
