<svg width="42" height="42" viewBox="0 0 42 42" fill="none" xmlns="http://www.w3.org/2000/svg">
<path d="M39.9062 1.46875C40.6875 2.01562 41.0781 2.95312 40.9219 3.89062L35.9219 36.3906C35.8438 37.1719 35.375 37.7969 34.6719 38.1875C34.0469 38.5781 33.1875 38.6562 32.4844 38.3438L23.1875 34.4375L17.7969 40.2188C17.0938 41 16 41.2344 15.0625 40.8438C14.125 40.5312 13.5 39.5938 13.5 38.5V32.0156C13.5 31.7031 13.5781 31.3906 13.8125 31.1562L26.8594 16.8594C27.3281 16.3906 27.3281 15.6094 26.8594 15.1406C26.3906 14.6719 25.6094 14.6719 25.1406 15.1406L9.28125 29.2031L2.32812 25.7656C1.54688 25.375 1 24.5156 1 23.5781C0.921875 22.7188 1.39062 21.8594 2.25 21.3906L37.25 1.39062C38.0312 0.921875 39.125 0.921875 39.9062 1.46875Z" fill="black"/>
</svg>
