<svg width="46" height="42" viewBox="0 0 46 42" fill="none" xmlns="http://www.w3.org/2000/svg">
<path d="M43.6719 8.5L23.9062 28.2656L17.7344 22.0938L37.5 2.32812C39.2188 0.609375 41.9531 0.609375 43.6719 2.32812C45.3906 4.04688 45.3906 6.78125 43.6719 8.5ZM16.0156 23.8125L22.1875 29.9844C22.3438 30.7656 22.5 31.4688 22.5 32.25C22.5 37.0938 18.5156 41 13.75 41H2.5C1.09375 41 0 39.9062 0 38.5C0 37.1719 1.09375 36 2.5 36H2.8125C4.21875 36 5.15625 34.5938 5 33.1875C5 32.875 5 32.5625 5 32.25C5 27.4844 8.90625 23.5 13.75 23.5C14.5312 23.5 15.2344 23.6562 16.0156 23.8125ZM23.2812 13.0312L15.1562 21.1562C14.6875 21.0781 14.2188 21 13.75 21C13.6719 21 13.5938 21 13.5156 21L3.90625 11.4688C1.95312 9.51562 1.95312 6.3125 3.90625 4.35938L5.78125 2.5625C7.73438 0.609375 10.8594 0.609375 12.8125 2.5625L23.2812 13.0312ZM25 32.4844C25 32.4062 25 32.3281 25 32.25C25 31.7812 24.9219 31.3125 24.8438 30.8438L33.0469 22.7188L38.9062 28.6562C39.4531 29.125 39.8438 29.8281 40 30.5312L42.3438 38.6562C42.5 39.2812 42.3438 39.9844 41.875 40.4531C41.4062 41 40.7031 41.1562 40 40.9219L31.875 38.6562C31.1719 38.4219 30.5469 38.0312 30 37.5625L25 32.4844Z" fill="black"/>
</svg>
