<svg width="27" height="24" viewBox="0 0 27 24" fill="none" xmlns="http://www.w3.org/2000/svg">
<path d="M21 10.5C21 12.0938 20.625 13.5938 20.0156 14.9062L25.8281 18.6562C26.5312 19.2188 27 20.0625 27 21C27 22.6875 25.6406 24 24 24C23.25 24 22.6406 23.8125 22.125 23.3906L17.0625 18.7031C15.2812 20.1562 12.9844 21 10.5 21C4.6875 21 0 16.3125 0 10.5C0 4.73438 4.6875 0 10.5 0C16.2656 0 21 4.73438 21 10.5ZM14.9531 7.21875C13.9688 6.98438 12.6094 6.1875 11.9062 5.4375C10.7344 4.26562 8.85938 4.21875 7.64062 5.34375C7.125 5.85938 6.79688 6.5625 6.75 7.26562C6.65625 8.39062 6.32812 9.89062 5.71875 10.875C4.6875 12.7031 5.29688 15 7.125 16.0312C8.90625 17.0625 11.2031 16.4531 12.2344 14.625C12.6562 13.875 13.7812 13.2188 14.625 13.125C15.1406 13.0312 15.6094 12.8438 16.0312 12.5625C17.3438 11.5781 17.625 9.70312 16.6406 8.34375C16.2188 7.78125 15.6094 7.40625 14.9531 7.21875ZM24.75 21C24.75 20.625 24.375 20.25 24 20.25C23.5781 20.25 23.25 20.625 23.25 21C23.25 21.4219 23.5781 21.75 24 21.75C24.375 21.75 24.75 21.4219 24.75 21ZM10.5 8.25C11.2969 8.25 12 8.71875 12.4219 9.375C12.8438 10.0781 12.8438 10.9688 12.4219 11.625C12 12.3281 11.2969 12.75 10.5 12.75C9.65625 12.75 8.95312 12.3281 8.53125 11.625C8.10938 10.9688 8.10938 10.0781 8.53125 9.375C8.95312 8.71875 9.65625 8.25 10.5 8.25Z" fill="black"/>
</svg>
