<svg width="42" height="37" viewBox="0 0 42 37" fill="none" xmlns="http://www.w3.org/2000/svg">
<path d="M18.6562 6.26562C19.75 9.625 18.6562 13.0625 16.0781 13.8438C13.5781 14.7031 10.6094 12.6719 9.51562 9.3125C8.42188 5.95312 9.51562 2.51562 12.0938 1.73438C14.5938 0.875 17.5625 2.90625 18.6562 6.26562ZM8.8125 14.5469C10.2969 17.0469 9.90625 20.0156 8.03125 21.1094C6.07812 22.2031 3.34375 21.0312 1.85938 18.5312C0.375 15.9531 0.765625 13.0625 2.64062 11.9688C4.59375 10.875 7.32812 12.0469 8.8125 14.5469ZM6.39062 30.4062C10.4531 19.3125 17.7188 16.5 21 16.5C24.2031 16.5 31.4688 19.3125 35.5312 30.4062C35.8438 31.1094 36 31.9688 36 32.75V32.9062C36 34.9375 34.3594 36.5 32.3281 36.5C31.3906 36.5 30.5312 36.4219 29.6719 36.1875L22.7969 34.4688C21.625 34.1562 20.375 34.1562 19.125 34.4688L12.25 36.1875C11.3906 36.4219 10.5312 36.5 9.59375 36.5C7.5625 36.5 6 34.9375 6 32.9062V32.75C6 31.9688 6.07812 31.1094 6.39062 30.4062ZM33.8906 21.1094C32.0156 20.0156 31.625 17.0469 33.1094 14.5469C34.5938 12.0469 37.3281 10.875 39.2812 11.9688C41.1562 13.0625 41.5469 15.9531 40.0625 18.5312C38.5781 21.0312 35.8438 22.2031 33.8906 21.1094ZM25.2188 13.8438C22.6406 13.0625 21.5469 9.625 22.6406 6.26562C23.7344 2.90625 26.7031 0.875 29.2031 1.73438C31.7812 2.51562 32.875 5.95312 31.7812 9.3125C30.6875 12.6719 27.7188 14.7031 25.2188 13.8438Z" fill="black"/>
</svg>
