<svg width="45" height="33" viewBox="0 0 45 33" fill="none" xmlns="http://www.w3.org/2000/svg">
<path d="M13.5 16.5C9.14062 16.5 5.625 12.9844 5.625 8.625C5.625 4.33594 9.14062 0.75 13.5 0.75C17.7891 0.75 21.375 4.33594 21.375 8.625C21.375 12.9844 17.7891 16.5 13.5 16.5ZM18.8438 18.75C23.3438 18.75 27 22.4062 27 26.9062V28.875C27 30.7734 25.4531 32.25 23.625 32.25H3.375C1.47656 32.25 0 30.7734 0 28.875V26.9062C0 22.4062 3.58594 18.75 8.08594 18.75H8.64844C10.125 19.4531 11.7422 19.875 13.5 19.875C15.1875 19.875 16.8047 19.4531 18.2812 18.75H18.8438ZM33.75 16.5C30.0234 16.5 27 13.4766 27 9.75C27 6.02344 30.0234 3 33.75 3C37.4766 3 40.5 6.02344 40.5 9.75C40.5 13.4766 37.4766 16.5 33.75 16.5ZM37.125 18.75C41.4141 18.75 45 22.3359 45 26.625C45 28.5234 43.4531 30 41.625 30H29.1797C29.1797 29.8594 29.25 29.7188 29.25 29.5781V26.9062C29.25 24.1641 28.125 21.7031 26.4375 19.875C27.5625 19.1719 28.8984 18.75 30.375 18.75H30.5859C31.5703 19.1016 32.625 19.3125 33.75 19.3125C34.8047 19.3125 35.8594 19.1016 36.8438 18.75H37.125Z" fill="black"/>
</svg>
