<svg width="35" height="40" viewBox="0 0 35 40" fill="none" xmlns="http://www.w3.org/2000/svg">
<path d="M17.5 20C13.9062 20 10.625 18.125 8.82812 15C7.03125 11.9531 7.03125 8.125 8.82812 5C10.625 1.95312 13.9062 0 17.5 0C21.0156 0 24.2969 1.95312 26.0938 5C27.8906 8.125 27.8906 11.9531 26.0938 15C24.2969 18.125 21.0156 20 17.5 20ZM13.9062 23.75H21.0156C28.75 23.75 35 30 35 37.7344C35 38.9844 33.9062 40 32.6562 40H2.26562C1.01562 40 0 38.9844 0 37.7344C0 30 6.17188 23.75 13.9062 23.75Z" fill="black"/>
</svg>
