<svg width="38" height="32" viewBox="0 0 38 32" fill="none" xmlns="http://www.w3.org/2000/svg">
<path d="M18.9062 14.4062L31.6562 1.65625C32.5938 0.8125 34 0.8125 34.8438 1.65625L37 3.8125C37.8438 4.65625 37.8438 6.15625 37 7L27.9062 16L37 25.0938C37.8438 25.9375 37.8438 27.3438 37 28.2812L34.8438 30.3438C34 31.2812 32.5938 31.2812 31.6562 30.3438L18.9062 17.5938C18.0625 16.75 18.0625 15.3438 18.9062 14.4062ZM0.90625 17.5938C0.0625 16.75 0.0625 15.3438 0.90625 14.4062L13.6562 1.65625C14.5938 0.8125 16 0.8125 16.8438 1.65625L19 3.8125C19.8438 4.65625 19.8438 6.15625 19 7L9.90625 16L19 25.0938C19.8438 25.9375 19.8438 27.3438 19 28.2812L16.8438 30.3438C16 31.2812 14.5938 31.2812 13.6562 30.3438L0.90625 17.5938Z" fill="black"/>
</svg>
