<svg width="37" height="37" viewBox="0 0 37 37" fill="none" xmlns="http://www.w3.org/2000/svg">
<path d="M35.5078 31.6484C36.1406 32.3516 36.1406 33.4062 35.4375 34.0391L33.4688 36.0078C32.8359 36.7109 31.7812 36.7109 31.0781 36.0078L24.1172 29.0469C23.7656 28.6953 23.625 28.2734 23.625 27.8516V26.6562C21.0938 28.625 18 29.75 14.625 29.75C6.53906 29.75 0 23.2109 0 15.125C0 7.10938 6.53906 0.5 14.625 0.5C22.6406 0.5 29.25 7.10938 29.25 15.125C29.25 18.5703 28.0547 21.6641 26.1562 24.125H27.2812C27.7031 24.125 28.125 24.3359 28.4766 24.6172L35.5078 31.6484ZM14.625 24.125C19.5469 24.125 23.625 20.1172 23.625 15.125C23.625 10.2031 19.5469 6.125 14.625 6.125C9.63281 6.125 5.625 10.2031 5.625 15.125C5.625 20.1172 9.63281 24.125 14.625 24.125Z" fill="black"/>
</svg>
