<svg width="22" height="22" viewBox="0 0 22 22" fill="none" xmlns="http://www.w3.org/2000/svg">
<g filter="url(#filter0_d_377_1624)">
<circle cx="11" cy="7" r="7" fill="white"/>
<circle cx="11" cy="7" r="6" stroke="white" stroke-width="2"/>
</g>
<path d="M11.7059 2.35156L12.9754 4.94922L15.7684 5.35938C16.0028 5.39844 16.1981 5.55469 16.2762 5.78906C16.3543 6.00391 16.2957 6.25781 16.1199 6.41406L14.0887 8.42578L14.577 11.2773C14.616 11.5117 14.5184 11.7461 14.3231 11.8828C14.1278 12.0391 13.8739 12.0391 13.659 11.9414L11.159 10.5938L8.63948 11.9414C8.44416 12.0391 8.19026 12.0391 7.99494 11.8828C7.79963 11.7461 7.70198 11.5117 7.74104 11.2773L8.20979 8.42578L6.17854 6.41406C6.02229 6.25781 5.96369 6.00391 6.02229 5.78906C6.10041 5.55469 6.29573 5.39844 6.5301 5.35938L9.3426 4.94922L10.5926 2.35156C10.6903 2.13672 10.9051 2 11.159 2C11.3934 2 11.6082 2.13672 11.7059 2.35156Z" fill="#ECA731"/>
<defs>
<filter id="filter0_d_377_1624" x="0" y="0" width="22" height="22" filterUnits="userSpaceOnUse" color-interpolation-filters="sRGB">
<feFlood flood-opacity="0" result="BackgroundImageFix"/>
<feColorMatrix in="SourceAlpha" type="matrix" values="0 0 0 0 0 0 0 0 0 0 0 0 0 0 0 0 0 0 127 0" result="hardAlpha"/>
<feOffset dy="4"/>
<feGaussianBlur stdDeviation="2"/>
<feComposite in2="hardAlpha" operator="out"/>
<feColorMatrix type="matrix" values="0 0 0 0 0 0 0 0 0 0 0 0 0 0 0 0 0 0 0.25 0"/>
<feBlend mode="normal" in2="BackgroundImageFix" result="effect1_dropShadow_377_1624"/>
<feBlend mode="normal" in="SourceGraphic" in2="effect1_dropShadow_377_1624" result="shape"/>
</filter>
</defs>
</svg>
