<svg width="22" height="19" viewBox="0 0 22 19" fill="none" xmlns="http://www.w3.org/2000/svg">
<path d="M12.0078 0.867188C12.4375 1.0625 12.75 1.53125 12.75 2V17C12.75 17.5078 12.4375 17.9375 12.0078 18.1719C11.5391 18.3672 11.0312 18.2891 10.6406 17.9375L5.36719 13.25H2.75C1.34375 13.25 0.25 12.1562 0.25 10.75V8.25C0.25 6.88281 1.34375 5.75 2.75 5.75H5.36719L10.6406 1.10156C11.0312 0.75 11.5391 0.671875 12.0078 0.867188ZM18.7266 3.67969C20.4062 5.08594 21.5 7.15625 21.5 9.5C21.5 11.8828 20.4062 13.9531 18.7266 15.3203C18.2969 15.6719 17.7109 15.5938 17.3984 15.2031C17.0469 14.8125 17.125 14.2266 17.5156 13.875C18.8047 12.8594 19.625 11.2969 19.625 9.5C19.625 7.74219 18.8047 6.17969 17.5156 5.16406C17.125 4.8125 17.0859 4.22656 17.3984 3.83594C17.7109 3.44531 18.2969 3.36719 18.7266 3.67969ZM16.3438 6.60938C17.2031 7.3125 17.75 8.32812 17.75 9.5C17.75 10.7109 17.2031 11.7266 16.3438 12.4297C15.9531 12.7422 15.3672 12.7031 15.0156 12.2734C14.7031 11.8828 14.7812 11.2969 15.1719 10.9844C15.6016 10.6328 15.875 10.0859 15.875 9.5C15.875 8.91406 15.6016 8.40625 15.1719 8.05469C14.7812 7.74219 14.7031 7.15625 15.0156 6.72656C15.3672 6.33594 15.9531 6.29688 16.3438 6.60938Z" fill="black"/>
</svg>
