<svg width="30" height="24" viewBox="0 0 30 24" fill="none" xmlns="http://www.w3.org/2000/svg">
<path d="M5.25 1.125C5.25 2.39062 5.71875 2.95312 6.42188 3.79688H6.46875C7.21875 4.64062 8.25 5.76562 8.25 7.875C8.25 8.53125 7.73438 9 7.125 9C6.46875 9 6 8.53125 6 7.875C6 6.65625 5.48438 6.09375 4.78125 5.25H4.73438C3.98438 4.35938 3 3.28125 3 1.125C3 0.515625 3.46875 0 4.125 0C4.73438 0 5.25 0.515625 5.25 1.125ZM10.5 1.125C10.5 2.39062 10.9688 2.95312 11.6719 3.79688H11.7188C12.4688 4.64062 13.5 5.76562 13.5 7.875C13.5 8.53125 12.9844 9 12.375 9C11.7188 9 11.25 8.53125 11.25 7.875C11.25 6.65625 10.7344 6.09375 10.0312 5.25H9.98438C9.23438 4.35938 8.25 3.28125 8.25 1.125C8.25 0.515625 8.71875 0 9.375 0C9.98438 0 10.5 0.515625 10.5 1.125ZM20.25 5.25C22.5938 5.25 24.6094 6.84375 25.2656 9H15.1875C15.8438 6.84375 17.8594 5.25 20.25 5.25ZM3.60938 15H2.25C1.40625 15 0.75 14.3438 0.75 13.5C0.75 12.7031 1.40625 12 2.25 12H3.04688C3.04688 11.2031 3.70312 10.5 4.54688 10.5H25.4062C26.25 10.5 26.9062 11.2031 26.9062 12H27.75C28.5469 12 29.25 12.7031 29.25 13.5C29.25 14.3438 28.5469 15 27.75 15H26.3438C25.3594 18 23.25 20.4844 20.4844 21.9375L20.4375 22.3594C20.2969 23.2969 19.5 24 18.5625 24H11.3906C10.4531 24 9.65625 23.2969 9.51562 22.3594L9.46875 21.9375C6.70312 20.4844 4.59375 18 3.60938 15Z" fill="black"/>
</svg>
