<svg width="43" height="43" viewBox="0 0 43 43" fill="none" xmlns="http://www.w3.org/2000/svg">
<path d="M33.5 24.5C29.5156 24.5 26.1562 26.7656 24.5156 30.0469L6.3125 11.9219L6.39062 11.8438L11.0781 7.15625C17.9531 0.359375 28.9688 0.359375 35.8438 7.15625C41.0781 12.3906 42.3281 20.125 39.5156 26.5312C37.7969 25.2812 35.7656 24.5 33.5 24.5ZM4.82812 13.875L23.6562 32.7031C23.5 33.3281 23.5 33.875 23.5 34.5C23.5 36.375 23.9688 38.0156 24.75 39.5C24.5156 39.5 24.2812 39.5 24.0469 39.5H23.8906C21.2344 39.5 18.6562 38.4844 16.7812 36.6094L16 35.8281C14.9844 34.8125 13.3438 34.8906 12.3281 35.9844L7.875 41.1406C7.40625 41.6875 6.78125 42 6.07812 42C5.375 42.0781 4.67188 41.7656 4.20312 41.2969L1.70312 38.7969C1.23438 38.3281 0.921875 37.625 1 36.9219C1 36.2188 1.3125 35.5938 1.85938 35.125L7.01562 30.6719C8.10938 29.6562 8.1875 28.0156 7.17188 27L6.39062 26.2188C4.51562 24.3438 3.5 21.7656 3.5 19.1094V18.9531C3.5 17.1562 3.96875 15.4375 4.82812 13.875ZM33.5 27C36.1562 27 38.5781 28.4844 39.9844 30.75C41.3125 33.0938 41.3125 35.9844 39.9844 38.25C38.5781 40.5938 36.1562 42 33.5 42C30.7656 42 28.3438 40.5938 26.9375 38.25C25.6094 35.9844 25.6094 33.0938 26.9375 30.75C28.3438 28.4844 30.7656 27 33.5 27Z" fill="black"/>
</svg>
