<svg width="33" height="37" viewBox="0 0 33 37" fill="none" xmlns="http://www.w3.org/2000/svg">
<path d="M16.75 36.5C14.2188 36.5 12.25 34.5312 12.25 32H21.1797C21.1797 34.5312 19.2109 36.5 16.75 36.5ZM31.8672 26.0234C32.2891 26.4453 32.5 27.0078 32.5 27.5C32.4297 28.6953 31.5859 29.75 30.1797 29.75H3.25C1.84375 29.75 1 28.6953 1 27.5C0.929688 27.0078 1.14062 26.4453 1.5625 26.0234C2.89844 24.5469 5.5 22.3672 5.5 15.125C5.5 9.71094 9.29688 5.35156 14.5 4.22656V2.75C14.5 1.55469 15.4844 0.5 16.75 0.5C17.9453 0.5 18.9297 1.55469 18.9297 2.75V4.22656C24.1328 5.35156 27.9297 9.71094 27.9297 15.125C27.9297 22.3672 30.5312 24.5469 31.8672 26.0234Z" fill="black"/>
</svg>
