<svg xmlns="http://www.w3.org/2000/svg" width="48.865" height="28.967" viewBox="0 0 48.865 28.967"><defs><style>.a{fill:#0e5242;}</style></defs><path class="a" d="M14.484,16.294A8.147,8.147,0,1,0,6.337,8.147,8.149,8.149,0,0,0,14.484,16.294Zm7.242,1.81H18.608a9.849,9.849,0,0,1-8.249,0H7.242A7.241,7.241,0,0,0,0,25.346v.905a2.716,2.716,0,0,0,2.716,2.716H26.252a2.716,2.716,0,0,0,2.716-2.716v-.905A7.241,7.241,0,0,0,21.726,18.1Z"/><path class="a" d="M13.561,16.294A8.147,8.147,0,1,0,5.414,8.147,8.149,8.149,0,0,0,13.561,16.294ZM20.8,18.1H17.686a9.849,9.849,0,0,1-8.249,0c6,5.143,5.722,10.863,5.722,10.863H25.33a2.716,2.716,0,0,0,2.716-2.716v-.905A7.241,7.241,0,0,0,20.8,18.1Z" transform="translate(20.82)"/></svg>