<svg xmlns="http://www.w3.org/2000/svg" width="31" height="31" viewBox="0 0 31 31"><defs><style>.a{fill:#0e5242;}</style></defs><g transform="translate(-72.5 -834.497)"><g transform="translate(72.5 834.497)"><path class="a" d="M305.622,83.587,291.413,69.378a1.292,1.292,0,0,0-1.826,0L275.378,83.587a1.291,1.291,0,0,0,.913,2.2h1.615a.323.323,0,0,1,.323.323V98.709A1.292,1.292,0,0,0,279.521,100h7.427a.323.323,0,0,0,.323-.323V93.542a3.229,3.229,0,1,1,6.458,0v6.135a.323.323,0,0,0,.323.323h7.427a1.292,1.292,0,0,0,1.292-1.292V86.115a.323.323,0,0,1,.323-.323h1.615a1.291,1.291,0,0,0,.913-2.2Z" transform="translate(-275 -69)"/></g></g></svg>