<svg width="54" height="54" viewBox="0 0 54 54" fill="none" xmlns="http://www.w3.org/2000/svg">
<g filter="url(#filter0_d_466_2020)">
<circle cx="27" cy="23" r="20" fill="#ECA731"/>
<circle cx="27" cy="23" r="21.5" stroke="white" stroke-width="3"/>
</g>
<path d="M28.1637 8.79742L31.6659 15.9634L39.3706 17.0948C40.0171 17.2026 40.5559 17.6336 40.7715 18.2802C40.987 18.8728 40.8253 19.5733 40.3404 20.0043L34.737 25.5539L36.084 33.4203C36.1917 34.0668 35.9223 34.7134 35.3835 35.0905C34.8447 35.5216 34.1443 35.5216 33.5516 35.2522L26.6551 31.5345L19.7047 35.2522C19.1659 35.5216 18.4654 35.5216 17.9266 35.0905C17.3878 34.7134 17.1184 34.0668 17.2262 33.4203L18.5193 25.5539L12.9159 20.0043C12.4848 19.5733 12.3232 18.8728 12.4848 18.2802C12.7003 17.6336 13.2391 17.2026 13.8857 17.0948L21.6443 15.9634L25.0926 8.79742C25.362 8.20475 25.9546 7.82759 26.6551 7.82759C27.3016 7.82759 27.8943 8.20475 28.1637 8.79742Z" fill="white"/>
<defs>
<filter id="filter0_d_466_2020" x="0" y="0" width="54" height="54" filterUnits="userSpaceOnUse" color-interpolation-filters="sRGB">
<feFlood flood-opacity="0" result="BackgroundImageFix"/>
<feColorMatrix in="SourceAlpha" type="matrix" values="0 0 0 0 0 0 0 0 0 0 0 0 0 0 0 0 0 0 127 0" result="hardAlpha"/>
<feOffset dy="4"/>
<feGaussianBlur stdDeviation="2"/>
<feComposite in2="hardAlpha" operator="out"/>
<feColorMatrix type="matrix" values="0 0 0 0 0 0 0 0 0 0 0 0 0 0 0 0 0 0 0.25 0"/>
<feBlend mode="normal" in2="BackgroundImageFix" result="effect1_dropShadow_466_2020"/>
<feBlend mode="normal" in="SourceGraphic" in2="effect1_dropShadow_466_2020" result="shape"/>
</filter>
</defs>
</svg>
