<svg width="41" height="41" viewBox="0 0 41 41" fill="none" xmlns="http://www.w3.org/2000/svg">
<g filter="url(#filter0_d_466_298)">
<circle cx="20.5" cy="16.5" r="13.5" fill="#ECA731"/>
<circle cx="20.5" cy="16.5" r="15" stroke="white" stroke-width="3"/>
</g>
<path d="M15.4844 9.13557L14.6758 10.7526L18.2617 7.76463C18.7539 7.37795 19.457 7.41311 19.8438 7.90524C20.2305 8.39737 20.1953 9.10042 19.7031 9.4871L16.8203 11.8775L20.3711 10.9283C20.9688 10.7526 21.6016 11.1041 21.7773 11.7017C21.918 12.2993 21.5664 12.932 20.9688 13.0726L18.1211 13.846C19 14.1272 19.7383 14.7248 20.1953 15.4982C20.4766 16.0606 20.3008 16.7285 19.7734 17.0449C19.2461 17.3612 18.543 17.1855 18.2266 16.623C17.9805 16.2012 17.5234 15.92 17.0312 15.92C16.2227 15.92 15.625 16.5527 15.625 17.3261C15.625 18.1346 16.2227 18.7322 17.0312 18.7322C17.5234 18.7322 17.9805 18.451 18.2266 18.0291C18.543 17.5018 19.2461 17.3261 19.7734 17.6425C20.3008 17.9588 20.4766 18.6267 20.1953 19.154C19.5977 20.1734 18.543 20.8765 17.3125 20.9819H17.0312H14.5C12.0039 20.9819 10 18.9782 10 16.4824V16.1661C10 15.463 10.1406 14.7951 10.457 14.1624L13.4805 8.11615C13.7617 7.55372 14.4297 7.3428 14.9922 7.62402C15.5547 7.90524 15.7656 8.57314 15.4844 9.13557ZM26.9805 23.8644L27.7891 22.2474L24.2031 25.2354C23.7109 25.622 23.0078 25.5869 22.6211 25.0948C22.2344 24.6026 22.2695 23.8996 22.7617 23.5129L25.6445 21.1225L22.0938 22.0717C21.4961 22.2474 20.8633 21.8959 20.7227 21.2983C20.5469 20.7007 20.8984 20.068 21.4961 19.9274L24.3438 19.154C23.4648 18.8728 22.7266 18.2752 22.2695 17.4667C21.9883 16.9394 22.1641 16.2715 22.6914 15.9551C23.2188 15.6388 23.9219 15.8145 24.2383 16.3418C24.4844 16.7636 24.9414 17.0449 25.4688 17.0449C26.2422 17.0449 26.875 16.4473 26.875 15.6388C26.875 14.8654 26.2422 14.2327 25.4688 14.2327C24.9414 14.2327 24.4844 14.5139 24.2383 14.9357C23.9219 15.4982 23.2188 15.6739 22.6914 15.3575C22.1641 15.0412 21.9883 14.3733 22.2695 13.8108C22.8672 12.8266 23.9219 12.0884 25.1875 12.0181V11.9829H25.4688H28C30.4609 11.9829 32.5 14.0218 32.5 16.4824V16.8339C32.5 17.537 32.3242 18.2049 32.0078 18.8376L28.9844 24.8838C28.7031 25.4463 28.0352 25.6572 27.4727 25.376C26.9102 25.0948 26.6992 24.4269 26.9805 23.8644Z" fill="white"/>
<defs>
<filter id="filter0_d_466_298" x="0" y="0" width="41" height="41" filterUnits="userSpaceOnUse" color-interpolation-filters="sRGB">
<feFlood flood-opacity="0" result="BackgroundImageFix"/>
<feColorMatrix in="SourceAlpha" type="matrix" values="0 0 0 0 0 0 0 0 0 0 0 0 0 0 0 0 0 0 127 0" result="hardAlpha"/>
<feOffset dy="4"/>
<feGaussianBlur stdDeviation="2"/>
<feComposite in2="hardAlpha" operator="out"/>
<feColorMatrix type="matrix" values="0 0 0 0 0 0 0 0 0 0 0 0 0 0 0 0 0 0 0.25 0"/>
<feBlend mode="normal" in2="BackgroundImageFix" result="effect1_dropShadow_466_298"/>
<feBlend mode="normal" in="SourceGraphic" in2="effect1_dropShadow_466_298" result="shape"/>
</filter>
</defs>
</svg>
