<svg width="41" height="41" viewBox="0 0 41 41" fill="none" xmlns="http://www.w3.org/2000/svg">
<g filter="url(#filter0_d_466_282)">
<circle cx="20.5" cy="16.5" r="13.5" fill="#ECA731"/>
<circle cx="20.5" cy="16.5" r="15" stroke="white" stroke-width="3"/>
</g>
<path d="M21.2855 6.91325L23.6495 11.7503L28.8502 12.514C29.2866 12.5867 29.6503 12.8777 29.7957 13.3141C29.9412 13.7142 29.8321 14.187 29.5048 14.4779L25.7225 18.2239L26.6317 23.5337C26.7044 23.9701 26.5226 24.4065 26.1589 24.6611C25.7952 24.952 25.3224 24.952 24.9224 24.7702L20.2672 22.2608L15.5757 24.7702C15.212 24.952 14.7392 24.952 14.3755 24.6611C14.0118 24.4065 13.83 23.9701 13.9027 23.5337L14.7755 18.2239L10.9932 14.4779C10.7023 14.187 10.5932 13.7142 10.7023 13.3141C10.8477 12.8777 11.2114 12.5867 11.6478 12.514L16.8849 11.7503L19.2125 6.91325C19.3943 6.5132 19.7944 6.25862 20.2672 6.25862C20.7036 6.25862 21.1037 6.5132 21.2855 6.91325Z" fill="white"/>
<defs>
<filter id="filter0_d_466_282" x="0" y="0" width="41" height="41" filterUnits="userSpaceOnUse" color-interpolation-filters="sRGB">
<feFlood flood-opacity="0" result="BackgroundImageFix"/>
<feColorMatrix in="SourceAlpha" type="matrix" values="0 0 0 0 0 0 0 0 0 0 0 0 0 0 0 0 0 0 127 0" result="hardAlpha"/>
<feOffset dy="4"/>
<feGaussianBlur stdDeviation="2"/>
<feComposite in2="hardAlpha" operator="out"/>
<feColorMatrix type="matrix" values="0 0 0 0 0 0 0 0 0 0 0 0 0 0 0 0 0 0 0.25 0"/>
<feBlend mode="normal" in2="BackgroundImageFix" result="effect1_dropShadow_466_282"/>
<feBlend mode="normal" in="SourceGraphic" in2="effect1_dropShadow_466_282" result="shape"/>
</filter>
</defs>
</svg>
